<?xml version="1.0" standalone="no"?>
<!DOCTYPE svg PUBLIC "-//W3C//DTD SVG 20010904//EN"
 "http://www.w3.org/TR/2001/REC-SVG-20010904/DTD/svg10.dtd">
<svg version="1.0" xmlns="http://www.w3.org/2000/svg"
 width="256.000000pt" height="256.000000pt" viewBox="0 0 256.000000 256.000000"
 preserveAspectRatio="xMidYMid meet">
<metadata>
Created by potrace 1.13, written by Peter Selinger 2001-2015
</metadata>
<g transform="translate(0.000000,256.000000) scale(0.100000,-0.100000)"
fill="#000000" stroke="none">
<path d="M180 1350 l0 -1070 1100 0 1100 0 0 1070 0 1070 -1100 0 -1100 0 0
-1070z m886 629 c119 -22 196 -75 246 -172 29 -57 37 -210 15 -288 -30 -101
-112 -181 -222 -215 -27 -9 -94 -18 -147 -21 l-98 -6 0 -193 0 -194 -90 0 -90
0 0 544 0 545 28 4 c59 9 302 6 358 -4z m827 -288 c26 -10 27 -13 27 -91 0
-44 -1 -80 -2 -80 -2 0 -32 9 -66 20 -113 35 -204 20 -218 -37 -11 -43 15 -73
111 -126 123 -68 164 -102 191 -161 57 -123 5 -262 -118 -317 -87 -38 -290
-31 -345 14 -15 11 -19 167 -5 167 5 0 27 -9 51 -21 86 -41 210 -44 249 -5 8
8 15 29 15 46 0 40 -38 79 -117 121 -142 75 -191 130 -202 225 -9 71 11 129
59 181 61 64 125 85 247 80 52 -3 107 -10 123 -16z"/>
<path d="M860 1635 l0 -195 68 0 c84 0 133 13 172 47 57 47 77 118 59 202 -21
97 -91 141 -228 141 l-71 0 0 -195z"/>
<path d="M100 170 c20 -13 2340 -13 2360 0 10 6 -405 10 -1180 10 -775 0
-1190 -4 -1180 -10z"/>
</g>
</svg>
