<?xml version="1.0" encoding="utf-8"?>
<!-- Generated by IcoMoon.io -->
<!DOCTYPE svg PUBLIC "-//W3C//DTD SVG 1.1//EN" "http://www.w3.org/Graphics/SVG/1.1/DTD/svg11.dtd">
<svg version="1.1" xmlns="http://www.w3.org/2000/svg" xmlns:xlink="http://www.w3.org/1999/xlink" width="55" height="55" viewBox="0 0 55 55">
<path fill="#535d5a" d="M27.5 0c-9.492 0-17.188 7.695-17.188 17.188 0 17.188 17.188 37.813 17.188 37.813s17.188-20.625 17.188-37.813c0-9.492-7.695-17.188-17.188-17.188zM27.5 27.715c-5.814 0-10.527-4.713-10.527-10.527s4.713-10.527 10.527-10.527 10.527 4.713 10.527 10.527-4.713 10.527-10.527 10.527zM20.84 17.188c0-3.678 2.982-6.66 6.66-6.66s6.66 2.982 6.66 6.66c0 3.678-2.982 6.66-6.66 6.66s-6.66-2.982-6.66-6.66z"></path>
</svg>
